<svg width="512" height="512" viewBox="0 0 1024 1024" fill="none" xmlns="http://www.w3.org/2000/svg">
<style>
  .hex { fill: #1994F5; }
  .letters { fill: white; }
  @media (prefers-color-scheme: light) {
    .hex { fill: #1994F5; }
    .letters { fill: #070B14; }
  }
</style>
<!-- Hexagon shape -->
<path class="hex" fill-rule="evenodd" clip-rule="evenodd" d="M818.854 226.422C847.513 277.795 880.581 337.085 892.492 358.258C904.404 379.43 929.535 424.392 948.271 457.906L982 519.202L977.378 528.463C972.306 538.177 901.75 664.925 800.565 845.478L775.22 890.671L250.526 891.781L246.119 884.725H246.1C243.682 880.749 230.232 856.726 215.902 831.147C201.572 805.801 181.957 770.514 171.801 752.888C161.877 735.244 135.42 688.726 113.37 649.265C91.1052 609.804 65.7599 564.825 56.9288 549.169C43.0476 524.918 41.0564 520.294 43.2589 516.103C44.5854 513.683 56.2648 492.725 69.2685 469.583C105.864 404.991 178.392 276.023 218.749 203.925C238.811 168.208 256.223 137.558 257.549 136.25C259.554 134.048 316.009 133.385 513.499 133.385L766.817 133.17L818.854 226.422ZM512.679 193.895C336.368 193.895 193.441 336.822 193.441 513.133C193.441 689.443 336.368 832.371 512.679 832.371C688.989 832.371 831.917 689.443 831.917 513.133C831.917 336.822 688.989 193.895 512.679 193.895Z"/>
<!-- S -->
<path class="letters" d="M350.92 591.391C320.599 584.508 302.393 565.566 297.848 535.6C296.835 529.403 296 521.485 296 518.043V511.496H322.789H349.414L350.591 521.135C352.439 537.321 356.82 543.001 369.961 546.106C388.66 550.415 401.965 532.844 394.053 514.42C390.179 505.466 385.457 501.507 362.541 488.077C339.462 474.647 326.992 465.862 318.231 456.908C290.935 428.845 293.632 377.881 323.953 354.462C337.943 343.788 347.539 340.683 371.124 339.661C394.368 338.794 406.004 341.214 419.473 349.986C436.995 361.527 445.592 377.713 447.098 403.538L448.11 418.521H421.664H395.381V410.771C395.381 401.467 392.178 393.214 386.962 388.387C384.266 385.799 380.898 384.946 373.985 384.946C365.731 384.946 364.212 385.463 359.831 390.626C355.957 394.934 354.944 397.858 354.944 403.706C354.944 417.654 360.844 423.165 402.28 447.787C439.514 469.821 450.971 486.706 450.971 519.246C450.971 563.845 423.676 591.391 377.681 593.461C367.907 593.811 358.312 593.111 350.892 591.391H350.92Z"/>
<!-- F -->
<path class="letters" d="M463.111 587.599C462.445 587.081 461.942 531.974 461.942 465.323V344.251H520.295C552.398 344.251 579.829 343.733 581.323 343.215C583.66 342.348 584 344.937 584 366.473V390.751L551.896 391.101L519.629 391.619L519.126 417.115L518.623 442.43H549.722H580.657V465.687V488.944L550.225 489.294L519.629 489.812L519.126 538.033C518.786 573.857 518.284 586.423 516.613 587.459C514.099 589.012 464.605 589.348 463.111 587.627V587.599Z"/>
<!-- L -->
<path class="letters" d="M601.627 587.883C600.96 587.366 600.456 532.489 600.456 466.08V345.312L606.828 344.11C610.178 343.592 623.086 343.075 635.313 343.075H657.44V441.997V540.918H692.638H727.999L727.495 564.652L726.991 588.219L664.82 588.736C630.629 588.904 602.308 588.568 601.641 587.869L601.627 587.883Z"/>
</svg>
